<svg width="241" height="105" viewBox="0 0 241 105" fill="none" xmlns="http://www.w3.org/2000/svg">
<mask id="mask0" mask-type="alpha" maskUnits="userSpaceOnUse" x="0" y="0" width="241" height="105">
<path d="M241 0H0V105H241V0Z" fill="#C4C4C4"/>
</mask>
<g mask="url(#mask0)">
<path d="M231 19H15.9879L10 85L231 48V19Z" fill="#F0B13A"/>
<path d="M148.215 69.7564L153.574 85.847L160.999 68.3406L164.421 67.9617L163.159 88.5837L160.569 88.8705L161.067 80.7125L161.812 72.3865L154.461 89.547L152.466 89.768L147.039 73.6988L146.76 82.5642L146.275 90.4535L143.671 90.7419L144.932 70.1199L148.215 69.7564ZM173.953 87.6699C172.083 87.8393 170.547 87.3106 169.345 86.0839C168.145 84.8571 167.511 83.1876 167.444 81.0754L167.447 80.4702C167.439 78.9612 167.726 77.5507 168.31 76.2387C168.903 74.9257 169.688 73.9012 170.661 73.1649C171.636 72.4193 172.729 71.9934 173.942 71.8873C175.488 71.7536 176.754 72.1339 177.742 73.0279C178.728 73.9222 179.358 75.2123 179.629 76.8985C179.723 77.4976 179.772 78.1018 179.773 78.7113L179.75 79.8816L169.956 80.9661C169.941 82.3464 170.292 83.4799 171.007 84.3667C171.731 85.2523 172.705 85.6462 173.927 85.5484C175.41 85.4218 176.702 84.6034 177.806 83.0931L179.382 84.1565C178.855 85.1341 178.121 85.9374 177.181 86.5667C176.25 87.1856 175.174 87.5534 173.953 87.6699ZM174.05 73.9995C173.013 74.0862 172.147 74.5385 171.452 75.3564C170.766 76.1732 170.278 77.3291 169.986 78.8246L177.273 78.0317L177.303 77.8032C177.322 76.6194 177.026 75.6722 176.414 74.9615C175.809 74.2407 175.021 73.92 174.05 73.9995ZM175.407 65.6199L178.606 65.2654L174.82 69.8205L172.618 70.0644L175.407 65.6199ZM182.033 78.855C182.049 77.3059 182.315 75.8788 182.835 74.5741C183.353 73.2693 184.059 72.2579 184.952 71.5401C185.844 70.8223 186.869 70.4134 188.026 70.3134C189.702 70.1654 191.053 70.6347 192.08 71.7213L192.651 63.7101L195.158 63.4324L193.84 85.1861L191.554 85.4393L191.639 83.7981C190.601 85.2259 189.212 86.0176 187.471 86.1727C186.082 86.2891 184.918 85.8693 183.981 84.9133C183.041 83.9483 182.442 82.5845 182.182 80.8221C182.093 80.2785 182.044 79.6229 182.033 78.855ZM184.603 80.0334C184.722 81.3613 185.072 82.3636 185.652 83.0402C186.231 83.7169 187.003 84.0113 187.966 83.9234C189.421 83.8278 190.629 82.9533 191.585 81.2999L192.007 74.2195C191.302 72.9097 190.217 72.317 188.754 72.4415C187.763 72.5231 186.922 72.9209 186.236 73.6347C185.556 74.3382 185.082 75.2772 184.809 76.4514C184.546 77.6155 184.478 78.8093 184.603 80.0334ZM200.515 84.4467L198.023 84.7229L198.96 69.3981L201.454 69.1219L200.515 84.4467ZM200.304 63.6925C200.728 63.6269 201.092 63.7178 201.4 63.965C201.717 64.2021 201.899 64.5428 201.948 64.9875C201.987 65.424 201.883 65.7965 201.638 66.1051C201.4 66.4128 201.065 66.5999 200.634 66.6664C200.203 66.733 199.833 66.6473 199.526 66.4093C199.22 66.1713 199.047 65.8342 199.007 65.3976C198.968 64.9612 199.066 64.5845 199.302 64.2676C199.538 63.9509 199.873 63.7591 200.304 63.6925ZM213.786 82.9773C213.691 82.7158 213.629 82.4554 213.6 82.1959L213.555 81.3991C212.319 82.83 210.93 83.6124 209.383 83.7461C208.061 83.8738 206.94 83.576 206.018 82.8528C205.105 82.1192 204.617 81.1322 204.553 79.8919C204.469 78.2881 205.024 76.9701 206.218 75.9374C207.422 74.8946 209.08 74.2561 211.194 74.0219L213.813 73.7459L213.848 72.5324C213.84 71.6235 213.586 70.9341 213.085 70.4644C212.592 69.9844 211.907 69.7836 211.027 69.8624C210.166 69.9389 209.429 70.2364 208.812 70.7547C208.205 71.2627 207.869 71.8861 207.801 72.6253L205.281 72.9183C205.267 72.029 205.522 71.2129 206.047 70.4701C206.572 69.7181 207.284 69.1046 208.184 68.6297C209.085 68.1454 210.039 67.857 211.048 67.7641C212.613 67.6282 213.88 67.9709 214.848 68.792C215.817 69.6038 216.316 70.7725 216.345 72.2979L215.952 79.8816L216.001 80.9594C216.039 81.4709 216.15 81.9698 216.336 82.4557L216.334 82.6951L213.786 82.9773ZM209.637 81.4674C210.441 81.3969 211.178 81.1231 211.844 80.646C212.519 80.1586 213.076 79.5295 213.513 78.7589L213.71 75.6001L211.812 75.7963C210.233 75.9713 209.05 76.3553 208.265 76.9487C207.48 77.542 207.084 78.3034 207.074 79.233C207.07 79.9462 207.296 80.5167 207.755 80.9441C208.222 81.3613 208.849 81.5358 209.637 81.4674Z" fill="white"/>
<path d="M68.7345 60.3335C69.9444 60.6482 70.9229 61.1949 71.67 61.9736C72.4378 62.7229 72.9222 63.7002 73.1229 64.9053C73.5875 67.6921 72.7855 69.9802 70.7175 71.7693C68.6744 73.5545 65.8509 74.747 62.2472 75.3469L47.0813 77.872L47.9437 50.6357L61.8708 48.3169C64.9489 47.8045 67.381 47.9672 69.1667 48.8053C70.9484 49.6181 72.0064 51.0288 72.3411 53.0373C72.588 54.5186 72.3926 55.8928 71.7551 57.1601C71.1133 58.4022 70.1065 59.4601 68.7345 60.3335ZM56.4495 55.6057L56.3138 59.6534L60.8186 58.9035C62.7706 58.5784 63.619 57.6503 63.3639 56.1187C63.2759 55.5915 63.0089 55.2232 62.5624 55.0137C62.1159 54.8042 61.5174 54.762 60.7665 54.8869L56.4495 55.6057ZM61.6997 69.052C62.6006 68.902 63.2928 68.5803 63.7766 68.087C64.256 67.5685 64.4309 66.9202 64.3011 66.1418C64.2091 65.5896 63.9253 65.1982 63.4496 64.9677C62.999 64.733 62.4607 64.6678 61.8351 64.772L56.1291 65.7221L55.9937 70.002L61.6997 69.052ZM89.4675 71.4344C87.115 71.8259 85.0104 71.7765 83.1539 71.2857C81.3184 70.7656 79.8161 69.8547 78.6475 68.5527C77.5039 67.2465 76.7689 65.6142 76.4426 63.656C76.3087 62.8526 76.254 61.9069 76.2784 60.8192L76.7527 45.8392L85.612 44.3643L85.1501 59.1873C85.1171 59.9153 85.1488 60.568 85.2451 61.1455C85.4417 62.3255 85.8885 63.1542 86.5853 63.6316C87.2822 64.1091 88.2062 64.2519 89.3573 64.0602C90.6587 63.8436 91.6032 63.2606 92.191 62.3112C92.7787 61.3619 93.1096 59.8747 93.1836 57.8498L93.6455 43.0268L102.355 41.5769L101.868 56.9459C101.732 61.0711 100.633 64.3504 98.5692 66.784C96.5055 69.2176 93.4716 70.7677 89.4675 71.4344ZM137.874 35.6633L137.086 62.8869L129.015 64.2308L129.341 51.8301L123.552 62.7019L119.648 63.352L114.012 54.5369L113.624 66.7933L105.553 68.1369L106.416 40.9007L113.623 39.7007L121.664 52.7598L130.328 36.9195L137.874 35.6633ZM151.906 61.0389C149.629 61.4181 147.449 61.5358 145.367 61.3921C143.282 61.2233 141.521 60.8457 140.086 60.2589L142.41 53.1375C145.51 54.2986 148.599 54.6228 151.677 54.1104C152.803 53.9228 153.644 53.6411 154.199 53.2648C154.753 52.8887 154.991 52.462 154.911 51.9851C154.836 51.5331 154.462 51.2213 153.791 51.0491C153.144 50.873 152.13 50.7322 150.75 50.6266C148.922 50.4664 147.395 50.2562 146.169 49.996C144.938 49.7106 143.805 49.1638 142.771 48.3556C141.756 47.5181 141.118 46.3086 140.854 44.7269C140.524 42.7435 140.76 40.9236 141.565 39.2675C142.39 37.5819 143.736 36.1708 145.605 35.0341C147.469 33.8723 149.765 33.0642 152.492 32.61C154.444 32.2852 156.292 32.1838 158.036 32.3065C159.8 32.3997 161.357 32.7082 162.705 33.2322L160.593 40.2407C159.458 39.7588 158.238 39.4589 156.932 39.3409C155.651 39.2185 154.36 39.2658 153.059 39.4824C151.833 39.6866 150.911 40.0206 150.294 40.4847C149.677 40.9486 149.408 41.4192 149.487 41.8962C149.567 42.3731 149.93 42.6997 150.577 42.876C151.248 43.048 152.312 43.1805 153.768 43.2736C155.537 43.3919 157.034 43.5813 158.261 43.8414C159.512 44.0975 160.644 44.6317 161.652 45.4441C162.662 46.2564 163.298 47.441 163.556 48.9975C163.883 50.9558 163.633 52.7651 162.802 54.4255C161.973 56.086 160.626 57.4971 158.762 58.6589C156.894 59.7956 154.609 60.5889 151.906 61.0389Z" fill="#322C2C"/>
</g>
</svg>
