<svg width="222" height="84" viewBox="0 0 222 84" fill="none" xmlns="http://www.w3.org/2000/svg">
<mask id="mask0" mask-type="alpha" maskUnits="userSpaceOnUse" x="-19" y="-21" width="241" height="105">
<path d="M222 -21H-19V84H222V-21Z" fill="#C4C4C4"/>
</mask>
<g mask="url(#mask0)">
<path d="M212 -2H-3.01207L-9 64L212 27V-2Z" fill="#F0B13A"/>
<path d="M129.215 48.7564L134.574 64.847L141.999 47.3406L145.421 46.9617L144.159 67.5837L141.569 67.8705L142.067 59.7125L142.812 51.3865L135.461 68.547L133.466 68.768L128.039 52.6988L127.76 61.5642L127.275 69.4535L124.671 69.7419L125.932 49.1199L129.215 48.7564ZM154.953 66.6699C153.083 66.8393 151.547 66.3106 150.345 65.0839C149.145 63.8571 148.511 62.1876 148.444 60.0754L148.447 59.4702C148.439 57.9612 148.726 56.5507 149.31 55.2387C149.903 53.9257 150.688 52.9012 151.661 52.1649C152.636 51.4193 153.729 50.9934 154.942 50.8873C156.488 50.7536 157.754 51.1339 158.742 52.0279C159.728 52.9222 160.358 54.2123 160.629 55.8985C160.723 56.4976 160.772 57.1018 160.773 57.7113L160.75 58.8816L150.956 59.9661C150.941 61.3464 151.292 62.4799 152.007 63.3667C152.731 64.2523 153.705 64.6462 154.927 64.5484C156.41 64.4218 157.702 63.6034 158.806 62.0931L160.382 63.1565C159.855 64.1341 159.121 64.9374 158.181 65.5667C157.25 66.1856 156.174 66.5534 154.953 66.6699ZM155.05 52.9995C154.013 53.0862 153.147 53.5385 152.452 54.3564C151.766 55.1732 151.278 56.3291 150.986 57.8246L158.273 57.0317L158.303 56.8032C158.322 55.6194 158.026 54.6722 157.414 53.9615C156.809 53.2407 156.021 52.92 155.05 52.9995ZM156.407 44.6199L159.606 44.2654L155.82 48.8205L153.618 49.0644L156.407 44.6199ZM163.033 57.855C163.049 56.3059 163.315 54.8788 163.835 53.5741C164.353 52.2693 165.059 51.2579 165.952 50.5401C166.844 49.8223 167.869 49.4134 169.026 49.3134C170.702 49.1654 172.053 49.6347 173.08 50.7213L173.651 42.7101L176.158 42.4324L174.84 64.1861L172.554 64.4393L172.639 62.7981C171.601 64.2259 170.212 65.0176 168.471 65.1727C167.082 65.2891 165.918 64.8693 164.981 63.9133C164.041 62.9483 163.442 61.5845 163.182 59.8221C163.093 59.2785 163.044 58.6229 163.033 57.855ZM165.603 59.0334C165.722 60.3613 166.072 61.3636 166.652 62.0402C167.231 62.7169 168.003 63.0113 168.966 62.9234C170.421 62.8278 171.629 61.9533 172.585 60.2999L173.007 53.2195C172.302 51.9097 171.217 51.317 169.754 51.4415C168.763 51.5231 167.922 51.9209 167.236 52.6347C166.556 53.3382 166.082 54.2772 165.809 55.4514C165.546 56.6155 165.478 57.8093 165.603 59.0334ZM181.515 63.4467L179.023 63.7229L179.96 48.3981L182.454 48.1219L181.515 63.4467ZM181.304 42.6925C181.728 42.6269 182.092 42.7178 182.4 42.965C182.717 43.2021 182.899 43.5428 182.948 43.9875C182.987 44.424 182.883 44.7965 182.638 45.1051C182.4 45.4128 182.065 45.5999 181.634 45.6664C181.203 45.733 180.833 45.6473 180.526 45.4093C180.22 45.1713 180.047 44.8342 180.007 44.3976C179.968 43.9612 180.066 43.5845 180.302 43.2676C180.538 42.9509 180.873 42.7591 181.304 42.6925ZM194.786 61.9773C194.691 61.7158 194.629 61.4554 194.6 61.1959L194.555 60.3991C193.319 61.83 191.93 62.6124 190.383 62.7461C189.061 62.8738 187.94 62.576 187.018 61.8528C186.105 61.1192 185.617 60.1322 185.553 58.8919C185.469 57.2881 186.024 55.9701 187.218 54.9374C188.422 53.8946 190.08 53.2561 192.194 53.0219L194.813 52.7459L194.848 51.5324C194.84 50.6235 194.586 49.9341 194.085 49.4644C193.592 48.9844 192.907 48.7836 192.027 48.8624C191.166 48.9389 190.429 49.2364 189.812 49.7547C189.205 50.2627 188.869 50.8861 188.801 51.6253L186.281 51.9183C186.267 51.029 186.522 50.2129 187.047 49.4701C187.572 48.7181 188.284 48.1046 189.184 47.6297C190.085 47.1454 191.039 46.857 192.048 46.7641C193.613 46.6282 194.88 46.9709 195.848 47.792C196.817 48.6038 197.316 49.7725 197.345 51.2979L196.952 58.8816L197.001 59.9594C197.039 60.4709 197.15 60.9698 197.336 61.4557L197.334 61.6951L194.786 61.9773ZM190.637 60.4674C191.441 60.3969 192.178 60.1231 192.844 59.646C193.519 59.1586 194.076 58.5295 194.513 57.7589L194.71 54.6001L192.812 54.7963C191.233 54.9713 190.05 55.3553 189.265 55.9487C188.48 56.542 188.084 57.3034 188.074 58.233C188.07 58.9462 188.296 59.5167 188.755 59.9441C189.222 60.3613 189.849 60.5358 190.637 60.4674Z" fill="#B75555"/>
<path d="M49.7345 39.3335C50.9444 39.6482 51.9229 40.1949 52.67 40.9736C53.4378 41.7229 53.9222 42.7002 54.1229 43.9053C54.5875 46.6921 53.7855 48.9802 51.7175 50.7693C49.6744 52.5545 46.8509 53.747 43.2472 54.3469L28.0813 56.872L28.9437 29.6357L42.8708 27.3169C45.9489 26.8045 48.381 26.9672 50.1667 27.8053C51.9484 28.6181 53.0064 30.0288 53.3411 32.0373C53.588 33.5186 53.3926 34.8928 52.7551 36.1601C52.1133 37.4022 51.1065 38.4601 49.7345 39.3335ZM37.4495 34.6057L37.3138 38.6534L41.8186 37.9035C43.7706 37.5784 44.619 36.6503 44.3639 35.1187C44.2759 34.5915 44.0089 34.2232 43.5624 34.0137C43.1159 33.8042 42.5174 33.762 41.7665 33.8869L37.4495 34.6057ZM42.6997 48.052C43.6006 47.902 44.2928 47.5803 44.7766 47.087C45.256 46.5685 45.4309 45.9202 45.3011 45.1418C45.2091 44.5896 44.9253 44.1982 44.4496 43.9677C43.999 43.733 43.4607 43.6678 42.8351 43.772L37.1291 44.7221L36.9937 49.002L42.6997 48.052ZM70.4675 50.4344C68.115 50.8259 66.0104 50.7765 64.1539 50.2857C62.3184 49.7656 60.8161 48.8547 59.6475 47.5527C58.5039 46.2465 57.7689 44.6142 57.4426 42.656C57.3087 41.8526 57.254 40.9069 57.2784 39.8192L57.7527 24.8392L66.612 23.3643L66.1501 38.1873C66.1171 38.9153 66.1488 39.568 66.2451 40.1455C66.4417 41.3255 66.8885 42.1542 67.5853 42.6316C68.2822 43.1091 69.2062 43.2519 70.3573 43.0602C71.6587 42.8436 72.6032 42.2606 73.191 41.3112C73.7787 40.3619 74.1096 38.8747 74.1836 36.8498L74.6455 22.0268L83.3547 20.5769L82.8681 35.9459C82.7323 40.0711 81.6328 43.3504 79.5692 45.784C77.5055 48.2176 74.4716 49.7677 70.4675 50.4344ZM118.874 14.6633L118.086 41.8869L110.015 43.2308L110.341 30.8301L104.552 41.7019L100.648 42.352L95.0122 33.5369L94.6243 45.7933L86.5533 47.1369L87.4157 19.9007L94.6232 18.7007L102.664 31.7598L111.328 15.9195L118.874 14.6633ZM132.906 40.0389C130.629 40.4181 128.449 40.5358 126.367 40.3921C124.282 40.2233 122.521 39.8457 121.086 39.2589L123.41 32.1375C126.51 33.2986 129.599 33.6228 132.677 33.1104C133.803 32.9228 134.644 32.6411 135.199 32.2648C135.753 31.8887 135.991 31.462 135.911 30.9851C135.836 30.5331 135.462 30.2213 134.791 30.0491C134.144 29.873 133.13 29.7322 131.75 29.6266C129.922 29.4664 128.395 29.2562 127.169 28.996C125.938 28.7106 124.805 28.1638 123.771 27.3556C122.756 26.5181 122.118 25.3086 121.854 23.7269C121.524 21.7435 121.76 19.9236 122.565 18.2675C123.39 16.5819 124.736 15.1708 126.605 14.0341C128.469 12.8723 130.765 12.0642 133.492 11.61C135.444 11.2852 137.292 11.1838 139.036 11.3065C140.8 11.3997 142.357 11.7082 143.705 12.2322L141.593 19.2407C140.458 18.7588 139.238 18.4589 137.932 18.3409C136.651 18.2185 135.36 18.2658 134.059 18.4824C132.833 18.6866 131.911 19.0206 131.294 19.4847C130.677 19.9486 130.408 20.4192 130.487 20.8962C130.567 21.3731 130.93 21.6997 131.577 21.876C132.248 22.048 133.312 22.1805 134.768 22.2736C136.537 22.3919 138.034 22.5813 139.261 22.8414C140.512 23.0975 141.644 23.6317 142.652 24.4441C143.662 25.2564 144.298 26.441 144.556 27.9975C144.883 29.9558 144.633 31.7651 143.802 33.4255C142.973 35.086 141.626 36.4971 139.762 37.6589C137.894 38.7956 135.609 39.5889 132.906 40.0389Z" fill="#322C2C"/>
</g>
</svg>
