<svg width="53" height="56" viewBox="0 0 53 56" fill="none" xmlns="http://www.w3.org/2000/svg">
<path d="M44.7005 0H8.40938C4.26382 0 0.890503 3.6297 0.890503 8.09035V47.1397C0.890503 51.6004 4.26382 55.2301 8.40938 55.2301H44.7005C48.8461 55.2301 52.2194 51.6004 52.2194 47.1397V8.09035C52.2194 3.6297 48.8461 0 44.7005 0ZM26.6552 42.0698C19.1923 42.0698 13.1212 35.5373 13.1212 27.5072C13.1212 19.4771 19.1923 12.9446 26.6552 12.9446C34.1181 12.9446 40.1892 19.4771 40.1892 27.5072C40.1892 35.5373 34.1181 42.0698 26.6552 42.0698ZM41.693 16.1807C39.2055 16.1807 37.1816 14.003 37.1816 11.3265C37.1816 8.64993 39.2055 6.47228 41.693 6.47228C44.1804 6.47228 46.2043 8.64993 46.2043 11.3265C46.2043 14.003 44.1804 16.1807 41.693 16.1807Z" fill="white"/>
<path d="M41.6929 42.2852C40.8631 42.2852 40.1891 43.0104 40.1891 43.9034C40.1891 44.7964 40.8631 45.5217 41.6929 45.5217C42.5227 45.5217 43.1967 44.7964 43.1967 43.9034C43.1967 43.0104 42.5227 42.2852 41.6929 42.2852Z" fill="white"/>
<path d="M26.6549 16.396C20.8512 16.396 16.1284 21.4778 16.1284 27.7225C16.1284 33.9673 20.8512 39.0491 26.6549 39.0491C32.4586 39.0491 37.1814 33.9673 37.1814 27.7225C37.1814 21.4778 32.4586 16.396 26.6549 16.396Z" fill="white"/>
</svg>
