<svg width="55" height="46" viewBox="0 0 55 46" fill="none" xmlns="http://www.w3.org/2000/svg">
<path d="M20.6919 45.2943C18.3869 45.2943 16.0144 45.1009 13.6277 44.7132C9.42391 44.0298 5.16851 41.7514 3.96436 41.0692L0.806152 39.2801L4.22544 38.115C7.96315 36.8416 10.2368 36.0515 13.0514 34.8144C10.2332 33.4003 8.06115 30.8564 7.0156 27.5681L6.22016 25.066L6.87246 25.1692C6.25391 24.5232 5.7655 23.8676 5.38689 23.2714C4.0404 21.1523 3.32751 18.563 3.4792 16.344L3.62885 14.16L4.89075 14.6665C4.35842 13.6249 3.97371 12.5125 3.7476 11.3466C3.19656 8.50314 3.65773 5.48233 5.04651 2.84076L6.14574 0.749916L7.61585 2.57951C12.2653 8.36662 18.1543 11.7995 25.1438 12.8045C24.8583 10.7655 25.0722 8.79768 25.7802 7.03382C26.6045 4.98006 28.071 3.23853 30.0197 1.99717C32.184 0.61887 34.8087 -0.0490034 37.4102 0.116595C40.1702 0.292307 42.6761 1.36385 44.6664 3.21746C45.6383 2.95579 46.3545 2.67642 47.3223 2.29888C47.9047 2.07176 48.5651 1.81388 49.3915 1.51892L52.4366 0.431781L50.4509 6.30822C50.5818 6.29684 50.7168 6.28715 50.8579 6.28083L54.1097 6.12829L52.1878 8.84993C52.0775 9.00584 52.0495 9.05008 52.0104 9.11118C51.8555 9.35305 51.6627 9.65391 49.0247 13.3038C48.3642 14.2178 48.0344 15.4081 48.0958 16.6562C48.3297 21.3992 47.7681 25.6904 46.4256 29.4103C45.156 32.9296 43.1885 35.9491 40.5785 38.3851C37.3488 41.3987 33.2304 43.4622 28.3373 44.5173C25.9372 45.0347 23.3597 45.2943 20.6919 45.2943Z" fill="white"/>
</svg>
